<?xml version="1.0" encoding="UTF-8"?>
<!-- Created with Inkscape (http://www.inkscape.org/) -->
<svg width="256" height="256" version="1.1" viewBox="0 0 67.733 67.733" xmlns="http://www.w3.org/2000/svg">
 <g stroke="#51a2ff">
  <ellipse cx="33.867" cy="33.867" rx="32.279" ry="32.279" fill="none" stroke-width="2.6458"/>
  <g fill="#51a2ff">
   <path d="m24.477 13.336c4.6833 0.36072 10.443 5.0551 15.116 5.5314 5.7725 0.58834 14.566-4.1463 14.566-4.1463s-8.7933 6.8889-14.566 6.3005c-4.673-0.47628-10.432-5.1707-15.116-5.5314-5.2374-0.40339-10.866 3.8674-10.866 3.8674s5.629-6.4251 10.866-6.0217z" stroke-width=".53856px"/>
   <path d="m39.026 33.549c0.97167-6.0496-8.7974-16.14-8.7974-16.14s13.661 12.719 11.821 20.342c-2.2135 9.1741-18.021 22.742-23.823 15.299-5.8423-7.496 19.292-10.118 20.799-19.502z" stroke-width=".26458px"/>
   <path d="m14.552 50.02c-1.1589-1.142-2.1256-2.7397-2.1828-4.3656 0.0048-4.5249 4.4725-6.2134 8.0225-7.5631 2.5988-1.0113 5.3667-1.5335 8.0935-2.1179 6.7305-1.4424 20.513-3.5494 20.513-3.5494s-14.521 1.8182-21.746 3.3747c-2.7922 0.60148-5.6332 1.147-8.2682 2.249-3.403 1.3079-7.4897 3.4638-7.6729 7.6068 0.02541 1.6268 0.99817 3.2504 2.1828 4.3656 2.442 2.2988 7.868 7.0023 9.2543 3.9484 1.2534-2.7613-6.0359-1.8199-8.1959-3.9484z" stroke-width=".26458"/>
   <path d="m48.76 30.476 0.46772 4.0224s7.2136-0.44561 6.8989-2.9233c-0.31283-2.4629-7.3666-1.0991-7.3666-1.0991z" stroke-width=".26458px"/>
  </g>
 </g>
</svg>
