<?xml version="1.0" encoding="UTF-8"?>
<!-- Created with Inkscape (http://www.inkscape.org/) -->
<svg width="256" height="256" version="1.1" viewBox="0 0 67.733 67.733" xmlns="http://www.w3.org/2000/svg">
 <g fill="#51a2ff" stroke="#51a2ff">
  <path d="m20.059 2.654c6.9938 0.53932 15.594 7.5581 22.573 8.2702 8.6203 0.87966 21.752-6.1993 21.752-6.1993s-13.131 10.3-21.752 9.4202c-6.9784-0.71211-15.579-7.7309-22.573-8.2702-7.8212-0.60312-16.227 5.7823-16.227 5.7823s8.4061-9.6064 16.227-9.0032z" stroke-width=".53856px"/>
  <path d="m41.785 32.876c1.451-9.045-13.137-24.131-13.137-24.131s20.4 19.016 17.653 30.415c-3.3055 13.717-26.912 34.003-35.575 22.874-8.7245-11.208 28.809-15.128 31.059-29.158z" stroke-width=".26458px"/>
  <path d="m5.237 57.501c-1.7306-1.7074-3.1743-4.0962-3.2597-6.5272 0.0072-6.7653 6.679-9.2899 11.98-11.308 3.8809-1.512 8.0143-2.2928 12.086-3.1665 10.051-2.1566 30.633-5.3069 30.633-5.3069s-21.685 2.7185-32.474 5.0456c-4.1696 0.89929-8.4122 1.7149-12.347 3.3625-5.0818 1.9555-11.185 5.1789-11.458 11.373 0.03795 2.4322 1.4906 4.8598 3.2597 6.5272 3.6467 3.4371 11.75 10.469 13.82 5.9033 1.8717-4.1285-9.0137-2.721-12.239-5.9033z" stroke-width=".26458"/>
  <path d="m56.321 28.28 0.69846 6.014s10.772-0.66624 10.302-4.3707c-0.46716-3.6824-11.001-1.6434-11.001-1.6434z" stroke-width=".26458px"/>
 </g>
</svg>
